<?xml version="1.0" encoding="UTF-8"?>
<svg xmlns="http://www.w3.org/2000/svg" xmlns:xlink="http://www.w3.org/1999/xlink" width="50px" height="50px" viewBox="0 0 250 250" version="1.1">
<g id="surface550">
<path style=" stroke:none;fill-rule:nonzero;fill:rgb(100%,0%,40.392157%);fill-opacity:1;" d="M 226.371094 11.625 C 225.421875 10.589844 224.085938 10 222.679688 10 L 27.320312 10 C 25.914062 10 24.578125 10.589844 23.628906 11.625 C 22.679688 12.660156 22.214844 14.050781 22.339844 15.445312 L 39.941406 212.578125 C 40.125 214.640625 41.558594 216.375 43.550781 216.945312 L 123.601562 239.808594 C 124.046875 239.933594 124.511719 240 124.96875 240 C 125.429688 240 125.894531 239.933594 126.339844 239.808594 L 206.460938 216.945312 C 208.449219 216.375 209.886719 214.640625 210.070312 212.578125 L 227.660156 15.445312 C 227.785156 14.050781 227.316406 12.660156 226.371094 11.625 Z M 60 145.019531 L 95 154.730469 L 95 55 L 115 55 L 115 185 L 60 169.746094 Z M 190.269531 110 L 185 171.25 L 135 185 L 135 161.996094 L 168.75 152.71875 L 170 133.96875 L 135 140 L 135 55 L 195 55 L 193.273438 75 L 155 75 L 155 115 Z M 190.269531 110 "/>
</g>
</svg>
