<?xml version="1.0"?>
<svg xmlns="http://www.w3.org/2000/svg" xmlns:xlink="http://www.w3.org/1999/xlink" version="1.1" id="Capa_1" x="0px" y="0px" viewBox="0 0 512 512" style="enable-background:new 0 0 512 512;" xml:space="preserve" data-ember-extension="1" width="50px" height="50px" class=""><g><g><circle style="fill:#FFB5D3" cx="256" cy="256" r="256" data-original="#FFB5D3" class="" data-old_color="#263364"/><path style="fill:#291221" d="M358.365,200.896c-3.076,1.955-6.348,4.972-9.815,9.046l-10.753-10.753h-44.549v74.864  L151.473,132.279h-50.524v248.182l130.349,130.349C239.427,511.588,247.665,512,256,512c125.879,0,230.536-90.853,251.978-210.563  l-97.297-97.297C394.909,194.75,373.92,191.013,358.365,200.896z" data-original="#151F45" class="active-path" data-old_color="#151F45"/><g>
	<path style="fill:#FF0067" d="M100.949,380.461V132.279h50.524V338.3h125.628v42.16H100.949V380.461z" data-original="#C9E1F6" class="" data-old_color="#C9E1F6"/>
	<path style="fill:#FF0067" d="M341.211,380.461h-47.963V199.19h44.55v25.774c7.622-12.175,14.479-20.197,20.568-24.067   c15.554-9.884,36.544-6.146,52.316,3.244l-14.85,41.818c-13.021-8.431-28.075-11.438-39.6-2.305   c-4.668,3.699-8.337,10.386-11.009,20.056C340.326,281.411,341.211,325.575,341.211,380.461z" data-original="#C9E1F6" class="" data-old_color="#C9E1F6"/>
</g></g></g> </svg>
