<?xml version="1.0" encoding="UTF-8"?>
<svg xmlns="http://www.w3.org/2000/svg" xmlns:xlink="http://www.w3.org/1999/xlink" width="50px" height="50px" viewBox="0 0 128 128" version="1.1">
<g id="surface1302">
<path style=" stroke:none;fill-rule:nonzero;fill:rgb(100%,0%,40.392157%);fill-opacity:1;" d="M 26.765625 24 C 19.128906 24.054688 10.46875 26.257812 4.414062 30.671875 C 4.265625 30.789062 4.132812 30.894531 4 31.007812 C 4.019531 31.042969 4.023438 31.066406 4.039062 31.101562 C 4.191406 31.101562 4.332031 31.078125 4.484375 31.0625 C 5.664062 30.875 6.832031 30.914062 7.992188 31.117188 C 12.457031 31.925781 16.933594 35.449219 18.46875 45.460938 C 19.460938 51.894531 18.335938 54.988281 19.96875 61.609375 C 23.53125 76.066406 37.039062 81.785156 43.921875 81.5625 C 44.632812 81.542969 48.195312 81.296875 48.71875 81.148438 C 48.265625 80.660156 40.542969 80.964844 35.96875 71.851562 C 35.160156 70.238281 34.558594 68.546875 34.765625 66.671875 C 35.308594 61.890625 40.9375 61.046875 44.515625 63.203125 C 51.269531 67.25 56.382812 80.324219 65.835938 81.484375 C 72.773438 82.328125 81.699219 78.292969 86.125 72.96875 C 86.011719 72.949219 85.972656 72.9375 85.9375 72.953125 C 85.863281 72.972656 85.78125 72.988281 85.726562 73.007812 C 79.484375 75.277344 68.042969 74.832031 60.46875 70.234375 C 53.417969 65.957031 50.515625 59.222656 50.757812 56.242188 C 51.09375 52.25 55.050781 51.898438 57.492188 52.570312 C 60.191406 53.300781 62.066406 55.867188 64.78125 57.703125 C 67.707031 59.652344 70.953125 60.269531 74.40625 59.632812 C 77.199219 59.125 80.855469 57.324219 81.25 56.914062 C 81.042969 56.894531 80.914062 56.898438 80.78125 56.882812 C 79.617188 56.769531 78.457031 56.734375 77.3125 56.5625 C 56.464844 53.46875 53.144531 25.882812 29.96875 24.101562 C 28.929688 24.023438 27.855469 23.992188 26.765625 24 Z M 24.742188 27.898438 C 24.535156 30.65625 20.574219 31.890625 18.117188 29.171875 C 17.945312 28.984375 17.945312 28.949219 17.875 28.796875 C 20.144531 28.308594 22.414062 28.03125 24.742188 27.898438 Z M 53.96875 34.8125 C 54.152344 35.019531 54.253906 35.136719 54.367188 35.25 C 57.179688 38.195312 60.378906 40.628906 64 42.484375 C 68.332031 44.679688 72.875 45.863281 77.765625 45.375 C 79.433594 45.222656 81.042969 44.792969 82.5625 44.039062 C 82.675781 43.984375 82.785156 43.886719 82.898438 43.8125 C 82.785156 43.757812 82.691406 43.738281 82.617188 43.757812 C 81.808594 43.855469 81.027344 44.003906 80.21875 44.078125 C 77.78125 44.300781 75.476562 43.929688 73.398438 42.5625 C 70.023438 40.332031 67.675781 37.890625 63.984375 36.390625 C 59.539062 34.589844 55.394531 34.8125 53.96875 34.8125 Z M 60.960938 44.007812 C 60.753906 44.28125 61.078125 44.421875 61.210938 44.585938 C 69.929688 55.023438 84.964844 56.628906 94.375 53.265625 C 101.441406 50.753906 106.117188 54.699219 107.054688 58.679688 C 107.070312 58.75 107.105469 58.84375 107.140625 58.914062 C 107.175781 58.894531 107.222656 58.890625 107.257812 58.890625 C 107.257812 57.261719 106.953125 55.402344 106.296875 53.703125 C 105.1875 50.832031 103.300781 48.621094 100.28125 47.445312 C 95.558594 45.617188 90.886719 47.097656 87.8125 48.039062 C 83.070312 49.503906 78.546875 50.085938 72.835938 48.984375 C 68.707031 48.203125 64.921875 46.667969 61.53125 44.242188 C 61.359375 44.113281 60.980469 43.972656 60.960938 44.007812 Z M 94.882812 61.773438 C 93.699219 61.722656 92.441406 61.792969 91.09375 61.984375 C 85.417969 62.808594 82.175781 65.375 78.117188 67.796875 C 74.640625 69.839844 72.554688 69.601562 68.023438 68.890625 C 68.023438 68.925781 68 68.941406 68 68.976562 C 68.070312 69.011719 68.125 69.058594 68.179688 69.09375 C 72.003906 71.042969 75.277344 71.230469 80.210938 70.59375 C 85.777344 69.863281 88.394531 67.871094 91.492188 66.015625 C 95.222656 63.785156 98.699219 64.441406 103.960938 65.265625 C 103.976562 65.230469 103.980469 65.183594 104 65.148438 C 101.324219 63.125 98.433594 61.921875 94.882812 61.773438 Z M 102.4375 67.734375 C 96.535156 68.171875 93 71.738281 89.8125 75.054688 C 88.414062 76.515625 87.03125 77.984375 85.554688 79.351562 C 82.75 81.976562 80.523438 82.179688 80 82.460938 L 80 82.539062 C 81.160156 82.613281 84.992188 82.441406 88.390625 81.75 C 101.4375 79.066406 101.703125 69.707031 107.757812 69.671875 C 109.160156 69.671875 110.519531 69.78125 111.828125 70.289062 C 111.863281 70.308594 111.90625 70.289062 112 70.289062 C 111.945312 70.214844 111.921875 70.160156 111.867188 70.125 C 110.59375 69.28125 109.433594 68.078125 105.117188 67.742188 C 104.171875 67.667969 103.28125 67.671875 102.4375 67.734375 Z M 111.570312 72.859375 C 109.285156 72.648438 107.105469 73.285156 105.023438 74.578125 C 104.96875 74.617188 104.910156 74.695312 104.796875 74.84375 C 106.144531 74.941406 108.195312 74.996094 110.070312 76.421875 C 112.339844 78.148438 113.683594 80.207031 115.992188 80.9375 C 119.746094 82.121094 123.34375 80.523438 124 79.945312 C 123.964844 79.871094 123.941406 79.855469 123.921875 79.867188 C 123.527344 79.753906 121.617188 79.847656 119.59375 77.898438 C 117.492188 75.894531 116.234375 74.148438 113.890625 73.359375 C 113.105469 73.09375 112.332031 72.929688 111.570312 72.859375 Z M 28.078125 80 L 28 80.070312 C 28.339844 80.648438 30.648438 83.40625 31.515625 84.3125 C 37.472656 90.597656 46.769531 95.652344 54.859375 95.4375 C 60.753906 95.273438 64.84375 93.953125 69.507812 94.320312 C 74.007812 94.644531 76.195312 95.734375 77.101562 96.007812 C 77.121094 95.972656 77.160156 95.949219 77.179688 95.914062 C 76.804688 95.386719 75.726562 94.332031 75.273438 93.96875 C 68.808594 88.855469 61.851562 91.613281 56.898438 89.367188 C 54.707031 88.371094 54.613281 87.046875 55.578125 86.25 C 56.3125 85.613281 56.613281 85.507812 60.109375 84.820312 C 59.710938 84.203125 56.253906 82.613281 51.960938 84.296875 C 47.519531 86.03125 43.003906 86.160156 38.429688 84.890625 C 32.929688 83.371094 29.324219 80.742188 28.078125 80 Z M 66.75 96.203125 C 66.699219 96.203125 66.640625 96.238281 66.546875 96.273438 C 67.808594 96.609375 71.441406 97.210938 75.421875 101.84375 C 77.777344 104.582031 80.589844 105.742188 83.96875 106.007812 C 83.988281 105.910156 84.101562 105.855469 83.703125 105.632812 C 82.789062 105.109375 82.035156 104.453125 81.445312 103.554688 C 80.242188 101.699219 78.472656 98.128906 73.851562 96.929688 C 71.515625 96.328125 69.140625 96.222656 66.75 96.203125 Z M 66.75 96.203125 "/>
</g>
</svg>
