<?xml version="1.0" encoding="UTF-8"?>
<svg xmlns="http://www.w3.org/2000/svg" xmlns:xlink="http://www.w3.org/1999/xlink" width="50px" height="50px" viewBox="0 0 250 250" version="1.1">
<g id="surface1648">
<path style=" stroke:none;fill-rule:nonzero;fill:rgb(100%,0%,40.392157%);fill-opacity:1;" d="M 137.1875 10 C 136.328125 10.15625 135.507812 10.527344 134.84375 11.09375 L 88.90625 27.96875 C 88.28125 28.164062 87.695312 28.476562 87.1875 28.90625 L 41.875 71.25 C 41.503906 71.5625 41.191406 71.933594 40.9375 72.34375 L 11.25 123.28125 C 11.074219 123.535156 10.917969 123.789062 10.78125 124.0625 L 10.625 124.375 C 10.566406 124.433594 10.527344 124.472656 10.46875 124.53125 C 10.46875 124.628906 10.46875 124.746094 10.46875 124.84375 C 10.410156 124.941406 10.351562 125.058594 10.3125 125.15625 C 10.253906 125.214844 10.214844 125.253906 10.15625 125.3125 C 10.15625 125.371094 10.15625 125.410156 10.15625 125.46875 C 10.097656 125.566406 10.039062 125.683594 10 125.78125 C 10 125.839844 10 125.878906 10 125.9375 C 10 126.035156 10 126.152344 10 126.25 C 10 126.308594 10 126.347656 10 126.40625 C 10 126.503906 10 126.621094 10 126.71875 C 10 126.777344 10 126.816406 10 126.875 C 9.960938 127.1875 9.960938 127.5 10 127.8125 L 10 189.6875 C 9.980469 189.902344 9.980469 190.097656 10 190.3125 L 10 190.46875 C 9.980469 190.9375 10.039062 191.425781 10.15625 191.875 C 11.171875 213.652344 20.058594 226.40625 30.78125 232.65625 C 40.976562 238.613281 51.914062 239.179688 58.75 239.375 C 59.277344 239.394531 60 239.355469 60.46875 239.375 L 60.9375 239.375 C 61.210938 239.335938 61.464844 239.296875 61.71875 239.21875 L 61.875 239.21875 L 222.03125 228.28125 C 222.402344 228.320312 222.753906 228.320312 223.125 228.28125 C 223.671875 228.203125 224.199219 228.046875 224.6875 227.8125 C 225.019531 227.636719 225.332031 227.421875 225.625 227.1875 C 225.683594 227.1875 225.722656 227.1875 225.78125 227.1875 C 227.304688 226.015625 228.046875 224.082031 227.65625 222.1875 L 239.53125 65.9375 C 239.550781 65.839844 239.511719 65.722656 239.53125 65.625 L 240 59.6875 C 240.078125 59.003906 240.039062 58.320312 239.84375 57.65625 C 239.84375 52.578125 239.375 47.539062 238.125 42.65625 C 234.277344 27.695312 222.695312 14.785156 201.09375 10.9375 C 200.78125 10.859375 200.46875 10.800781 200.15625 10.78125 C 200.058594 10.78125 199.941406 10.78125 199.84375 10.78125 L 138.75 10 C 138.378906 9.960938 138.027344 9.960938 137.65625 10 C 137.5 10 137.34375 10 137.1875 10 Z M 154.84375 20.15625 L 180.9375 20.46875 L 166.5625 28.4375 Z M 137.96875 20.625 L 160.78125 36.71875 L 144.53125 88.4375 L 83.125 145.625 L 32.96875 156.875 L 20.625 127.1875 L 49.21875 77.96875 L 93.28125 37.03125 Z M 200.46875 21.09375 C 218.085938 24.589844 225.429688 33.515625 228.4375 45.15625 C 230.957031 54.941406 229.453125 66.660156 226.71875 77.5 L 175 35.15625 Z M 169.21875 43.28125 L 216.40625 82.03125 L 155.78125 86.09375 Z M 222.34375 91.5625 C 211.894531 119.804688 193.691406 143.808594 172.96875 166.40625 L 155.15625 95.9375 Z M 146.09375 100.625 L 163.4375 169.84375 L 95.3125 147.8125 Z M 226.09375 109.53125 L 218.28125 212.65625 L 177.8125 176.5625 C 196.679688 156.367188 214.121094 134.667969 226.09375 109.53125 Z M 20 152.03125 L 24.53125 162.5 L 20 170.78125 Z M 89.21875 156.40625 L 160.3125 179.21875 C 133.808594 203.066406 104.589844 221.894531 67.8125 227.5 Z M 78.59375 156.875 L 59.6875 219.6875 L 36.875 166.25 Z M 29.375 174.21875 L 52.65625 228.75 C 47.148438 228.203125 41.171875 227.050781 35.78125 223.90625 C 27.753906 219.21875 20.976562 210.585938 20.15625 191.09375 Z M 170.46875 183.59375 L 210.625 219.21875 L 110 225.9375 C 132.695312 215.546875 152.324219 200.292969 170.46875 183.59375 Z M 170.46875 183.59375 "/>
</g>
</svg>
